<mxfile host="app.diagrams.net" agent="Mozilla/5.0 (Windows NT 10.0; Win64; x64) AppleWebKit/537.36 (KHTML, like Gecko) Chrome/134.0.0.0 Safari/537.36" version="26.1.1">
  <diagram name="Page-1" id="B4c163QJ_Yj-i2GqBQM2">
    <mxGraphModel dx="2109" dy="655" grid="1" gridSize="10" guides="1" tooltips="1" connect="1" arrows="1" fold="1" page="1" pageScale="1" pageWidth="850" pageHeight="1100" math="0" shadow="0">
      <root>
        <mxCell id="0" />
        <mxCell id="1" parent="0" />
        <mxCell id="jhLQx2Q7-8OO1zlAnOTo-1" value="" style="rounded=0;whiteSpace=wrap;html=1;fillColor=#f8cecc;strokeColor=#b85450;" vertex="1" parent="1">
          <mxGeometry x="40" y="80" width="250" height="200" as="geometry" />
        </mxCell>
        <mxCell id="jhLQx2Q7-8OO1zlAnOTo-9" style="edgeStyle=orthogonalEdgeStyle;rounded=0;orthogonalLoop=1;jettySize=auto;html=1;" edge="1" parent="1" source="jhLQx2Q7-8OO1zlAnOTo-2">
          <mxGeometry relative="1" as="geometry">
            <mxPoint x="100" y="240" as="targetPoint" />
          </mxGeometry>
        </mxCell>
        <mxCell id="jhLQx2Q7-8OO1zlAnOTo-2" value="&lt;b&gt;Main&lt;/b&gt;&lt;div&gt;&lt;b&gt;Container&lt;/b&gt;&lt;/div&gt;" style="ellipse;whiteSpace=wrap;html=1;aspect=fixed;fillColor=#dae8fc;strokeColor=#6c8ebf;" vertex="1" parent="1">
          <mxGeometry x="60" y="120" width="80" height="80" as="geometry" />
        </mxCell>
        <mxCell id="jhLQx2Q7-8OO1zlAnOTo-11" style="edgeStyle=orthogonalEdgeStyle;rounded=0;orthogonalLoop=1;jettySize=auto;html=1;" edge="1" parent="1" source="jhLQx2Q7-8OO1zlAnOTo-3" target="jhLQx2Q7-8OO1zlAnOTo-12">
          <mxGeometry relative="1" as="geometry">
            <mxPoint x="230" y="240" as="targetPoint" />
          </mxGeometry>
        </mxCell>
        <mxCell id="jhLQx2Q7-8OO1zlAnOTo-13" style="edgeStyle=orthogonalEdgeStyle;rounded=0;orthogonalLoop=1;jettySize=auto;html=1;" edge="1" parent="1" source="jhLQx2Q7-8OO1zlAnOTo-3">
          <mxGeometry relative="1" as="geometry">
            <mxPoint x="230" y="240" as="targetPoint" />
          </mxGeometry>
        </mxCell>
        <mxCell id="jhLQx2Q7-8OO1zlAnOTo-3" value="&lt;b&gt;Sidecar&lt;/b&gt;&lt;div&gt;&lt;b&gt;Container&lt;/b&gt;&lt;/div&gt;" style="ellipse;whiteSpace=wrap;html=1;aspect=fixed;fillColor=#d5e8d4;strokeColor=#82b366;" vertex="1" parent="1">
          <mxGeometry x="190" y="120" width="80" height="80" as="geometry" />
        </mxCell>
        <mxCell id="jhLQx2Q7-8OO1zlAnOTo-5" style="edgeStyle=orthogonalEdgeStyle;rounded=0;orthogonalLoop=1;jettySize=auto;html=1;" edge="1" parent="1" source="jhLQx2Q7-8OO1zlAnOTo-4" target="jhLQx2Q7-8OO1zlAnOTo-2">
          <mxGeometry relative="1" as="geometry" />
        </mxCell>
        <mxCell id="jhLQx2Q7-8OO1zlAnOTo-4" value="" style="html=1;verticalLabelPosition=bottom;align=center;labelBackgroundColor=#ffffff;verticalAlign=top;strokeWidth=2;strokeColor=#0080F0;shadow=0;dashed=0;shape=mxgraph.ios7.icons.user;" vertex="1" parent="1">
          <mxGeometry x="-170" y="130" width="70" height="60" as="geometry" />
        </mxCell>
        <mxCell id="jhLQx2Q7-8OO1zlAnOTo-6" value="&lt;b&gt;User&lt;/b&gt;" style="text;html=1;align=center;verticalAlign=middle;resizable=0;points=[];autosize=1;strokeColor=none;fillColor=none;" vertex="1" parent="1">
          <mxGeometry x="-160" y="190" width="50" height="30" as="geometry" />
        </mxCell>
        <mxCell id="jhLQx2Q7-8OO1zlAnOTo-7" value="" style="endArrow=none;html=1;rounded=0;exitX=0.007;exitY=0.796;exitDx=0;exitDy=0;exitPerimeter=0;" edge="1" parent="1" source="jhLQx2Q7-8OO1zlAnOTo-1">
          <mxGeometry width="50" height="50" relative="1" as="geometry">
            <mxPoint x="400" y="360" as="sourcePoint" />
            <mxPoint x="292" y="239" as="targetPoint" />
          </mxGeometry>
        </mxCell>
        <mxCell id="jhLQx2Q7-8OO1zlAnOTo-8" value="&lt;b&gt;/var/log/nginx/access.log&lt;/b&gt;" style="text;html=1;align=center;verticalAlign=middle;resizable=0;points=[];autosize=1;strokeColor=none;fillColor=none;" vertex="1" parent="1">
          <mxGeometry x="100" y="250" width="170" height="30" as="geometry" />
        </mxCell>
        <mxCell id="jhLQx2Q7-8OO1zlAnOTo-12" value="&lt;b&gt;ELK&lt;/b&gt;" style="rounded=0;whiteSpace=wrap;html=1;fillColor=#e1d5e7;strokeColor=#9673a6;" vertex="1" parent="1">
          <mxGeometry x="400" y="50" width="120" height="60" as="geometry" />
        </mxCell>
        <mxCell id="jhLQx2Q7-8OO1zlAnOTo-14" value="" style="rounded=1;whiteSpace=wrap;html=1;" vertex="1" parent="1">
          <mxGeometry x="30" y="390" width="550" height="340" as="geometry" />
        </mxCell>
        <mxCell id="jhLQx2Q7-8OO1zlAnOTo-20" style="edgeStyle=orthogonalEdgeStyle;rounded=0;orthogonalLoop=1;jettySize=auto;html=1;" edge="1" parent="1" source="jhLQx2Q7-8OO1zlAnOTo-15" target="jhLQx2Q7-8OO1zlAnOTo-17">
          <mxGeometry relative="1" as="geometry" />
        </mxCell>
        <mxCell id="jhLQx2Q7-8OO1zlAnOTo-15" value="Amazon EKS" style="sketch=0;outlineConnect=0;fontColor=#232F3E;gradientColor=none;strokeColor=#ffffff;fillColor=#232F3E;dashed=0;verticalLabelPosition=middle;verticalAlign=bottom;align=center;html=1;whiteSpace=wrap;fontSize=10;fontStyle=1;spacing=3;shape=mxgraph.aws4.productIcon;prIcon=mxgraph.aws4.eks;" vertex="1" parent="1">
          <mxGeometry x="100" y="510" width="80" height="100" as="geometry" />
        </mxCell>
        <mxCell id="jhLQx2Q7-8OO1zlAnOTo-24" style="edgeStyle=orthogonalEdgeStyle;rounded=0;orthogonalLoop=1;jettySize=auto;html=1;" edge="1" parent="1" source="jhLQx2Q7-8OO1zlAnOTo-16" target="jhLQx2Q7-8OO1zlAnOTo-23">
          <mxGeometry relative="1" as="geometry" />
        </mxCell>
        <mxCell id="jhLQx2Q7-8OO1zlAnOTo-16" value="" style="sketch=0;points=[[0,0,0],[0.25,0,0],[0.5,0,0],[0.75,0,0],[1,0,0],[0,1,0],[0.25,1,0],[0.5,1,0],[0.75,1,0],[1,1,0],[0,0.25,0],[0,0.5,0],[0,0.75,0],[1,0.25,0],[1,0.5,0],[1,0.75,0]];outlineConnect=0;fontColor=#232F3E;fillColor=#ED7100;strokeColor=#ffffff;dashed=0;verticalLabelPosition=bottom;verticalAlign=top;align=center;html=1;fontSize=12;fontStyle=0;aspect=fixed;shape=mxgraph.aws4.resourceIcon;resIcon=mxgraph.aws4.ec2;" vertex="1" parent="1">
          <mxGeometry x="300" y="410" width="78" height="78" as="geometry" />
        </mxCell>
        <mxCell id="jhLQx2Q7-8OO1zlAnOTo-27" style="edgeStyle=orthogonalEdgeStyle;rounded=0;orthogonalLoop=1;jettySize=auto;html=1;entryX=0;entryY=0.5;entryDx=0;entryDy=0;" edge="1" parent="1" source="jhLQx2Q7-8OO1zlAnOTo-17" target="jhLQx2Q7-8OO1zlAnOTo-25">
          <mxGeometry relative="1" as="geometry" />
        </mxCell>
        <mxCell id="jhLQx2Q7-8OO1zlAnOTo-17" value="" style="sketch=0;points=[[0,0,0],[0.25,0,0],[0.5,0,0],[0.75,0,0],[1,0,0],[0,1,0],[0.25,1,0],[0.5,1,0],[0.75,1,0],[1,1,0],[0,0.25,0],[0,0.5,0],[0,0.75,0],[1,0.25,0],[1,0.5,0],[1,0.75,0]];outlineConnect=0;fontColor=#232F3E;fillColor=#ED7100;strokeColor=#ffffff;dashed=0;verticalLabelPosition=bottom;verticalAlign=top;align=center;html=1;fontSize=12;fontStyle=0;aspect=fixed;shape=mxgraph.aws4.resourceIcon;resIcon=mxgraph.aws4.ec2;" vertex="1" parent="1">
          <mxGeometry x="300" y="521" width="78" height="78" as="geometry" />
        </mxCell>
        <mxCell id="jhLQx2Q7-8OO1zlAnOTo-28" style="edgeStyle=orthogonalEdgeStyle;rounded=0;orthogonalLoop=1;jettySize=auto;html=1;" edge="1" parent="1" source="jhLQx2Q7-8OO1zlAnOTo-18" target="jhLQx2Q7-8OO1zlAnOTo-26">
          <mxGeometry relative="1" as="geometry" />
        </mxCell>
        <mxCell id="jhLQx2Q7-8OO1zlAnOTo-18" value="" style="sketch=0;points=[[0,0,0],[0.25,0,0],[0.5,0,0],[0.75,0,0],[1,0,0],[0,1,0],[0.25,1,0],[0.5,1,0],[0.75,1,0],[1,1,0],[0,0.25,0],[0,0.5,0],[0,0.75,0],[1,0.25,0],[1,0.5,0],[1,0.75,0]];outlineConnect=0;fontColor=#232F3E;fillColor=#ED7100;strokeColor=#ffffff;dashed=0;verticalLabelPosition=bottom;verticalAlign=top;align=center;html=1;fontSize=12;fontStyle=0;aspect=fixed;shape=mxgraph.aws4.resourceIcon;resIcon=mxgraph.aws4.ec2;" vertex="1" parent="1">
          <mxGeometry x="300" y="630" width="78" height="78" as="geometry" />
        </mxCell>
        <mxCell id="jhLQx2Q7-8OO1zlAnOTo-19" style="edgeStyle=orthogonalEdgeStyle;rounded=0;orthogonalLoop=1;jettySize=auto;html=1;entryX=0;entryY=0.5;entryDx=0;entryDy=0;entryPerimeter=0;" edge="1" parent="1" source="jhLQx2Q7-8OO1zlAnOTo-15" target="jhLQx2Q7-8OO1zlAnOTo-16">
          <mxGeometry relative="1" as="geometry" />
        </mxCell>
        <mxCell id="jhLQx2Q7-8OO1zlAnOTo-21" style="edgeStyle=orthogonalEdgeStyle;rounded=0;orthogonalLoop=1;jettySize=auto;html=1;entryX=0;entryY=0.5;entryDx=0;entryDy=0;entryPerimeter=0;" edge="1" parent="1" source="jhLQx2Q7-8OO1zlAnOTo-15" target="jhLQx2Q7-8OO1zlAnOTo-18">
          <mxGeometry relative="1" as="geometry" />
        </mxCell>
        <mxCell id="jhLQx2Q7-8OO1zlAnOTo-23" value="" style="rounded=1;whiteSpace=wrap;html=1;fillColor=#dae8fc;strokeColor=#6c8ebf;" vertex="1" parent="1">
          <mxGeometry x="440" y="419" width="120" height="60" as="geometry" />
        </mxCell>
        <mxCell id="jhLQx2Q7-8OO1zlAnOTo-25" value="" style="rounded=1;whiteSpace=wrap;html=1;fillColor=#d5e8d4;strokeColor=#82b366;" vertex="1" parent="1">
          <mxGeometry x="440" y="530" width="120" height="60" as="geometry" />
        </mxCell>
        <mxCell id="jhLQx2Q7-8OO1zlAnOTo-26" value="" style="rounded=1;whiteSpace=wrap;html=1;fillColor=#f8cecc;strokeColor=#b85450;" vertex="1" parent="1">
          <mxGeometry x="440" y="639" width="120" height="60" as="geometry" />
        </mxCell>
        <mxCell id="jhLQx2Q7-8OO1zlAnOTo-29" value="&lt;b&gt;/var/log&lt;/b&gt;" style="text;html=1;align=center;verticalAlign=middle;resizable=0;points=[];autosize=1;strokeColor=none;fillColor=none;" vertex="1" parent="1">
          <mxGeometry x="460" y="434" width="70" height="30" as="geometry" />
        </mxCell>
        <mxCell id="jhLQx2Q7-8OO1zlAnOTo-30" value="&lt;b&gt;/var/log&lt;/b&gt;" style="text;html=1;align=center;verticalAlign=middle;resizable=0;points=[];autosize=1;strokeColor=none;fillColor=none;" vertex="1" parent="1">
          <mxGeometry x="460" y="545" width="70" height="30" as="geometry" />
        </mxCell>
        <mxCell id="jhLQx2Q7-8OO1zlAnOTo-31" value="&lt;b&gt;/var/log&lt;/b&gt;" style="text;html=1;align=center;verticalAlign=middle;resizable=0;points=[];autosize=1;strokeColor=none;fillColor=none;" vertex="1" parent="1">
          <mxGeometry x="465" y="654" width="70" height="30" as="geometry" />
        </mxCell>
      </root>
    </mxGraphModel>
  </diagram>
</mxfile>
